# xmcd
#
# Track frame offsets:
#	150
#	17823
#	32571
#	48819
#	67017
#	82815
#	99738
#	112386
#	130059
#	147132
#
# Disc length: 2202 seconds
#
# Revision: 1
# Processed by: cddbd v1.5.2PL0 Copyright (c) Steve Scherf et al.
# Submitted via: audiograbber 1.83.01
#
DISCID=8308980a
DTITLE=DOC WALKER - 16 and 1
DYEAR=2011
DGENRE=Country
TTITLE0=ARE YOU WITH ME TONIGHT?
TTITLE1=BABY, DO IT AGAIN
TTITLE2=NEVER LETTING GO
TTITLE3=WHERE I BELONG
TTITLE4=COUNTRY GIRL
TTITLE5=HARD ACT TO FOLLOW
TTITLE6=GET OUT OF DENVER
TTITLE7=DO IT RIGHT
TTITLE8=I THINK I'LL DISAPPEAR NOW
TTITLE9=TAILGATE REVOLUTION
EXTD=
EXTT0=
EXTT1=
EXTT2=
EXTT3=
EXTT4=
EXTT5=
EXTT6=
EXTT7=
EXTT8=
EXTT9=
PLAYORDER=
